# xmcd
#
# Track frame offsets:
#	150
#	13577
#	27425
#	37763
#	51127
#	62454
#	76175
#	88144
#	98823
#	110841
#
# Disc length: 1657 seconds
#
# Revision: 0
# Processed by: cddbd v1.5.1PL0 Copyright (c) Steve Scherf et al.
# Submitted via: EasyCDDAExtractor 8.1.4.1
#
DISCID=7206770a
DTITLE=LUIS Y JULIAN - LOS BUENOS CORRIDOS DE LUIS Y JULIAN
DYEAR=2003
DGENRE=Latin
TTITLE0=GENEROSO Y CARMELIA
TTITLE1=MARIANO RESENDEZ
TTITLE2=NAIPE MARCADO
TTITLE3=LEONARDO REYES
TTITLE4=LUCIO PALMA
TTITLE5=LA VENGANZA DE MARIA
TTITLE6=UN PRESO MAS
TTITLE7=PANCHO TREVIÑO
TTITLE8=RUPERTO SANDOVAL
TTITLE9=DOS CRUCES
EXTD=
EXTT0=
EXTT1=
EXTT2=
EXTT3=
EXTT4=
EXTT5=
EXTT6=
EXTT7=
EXTT8=
EXTT9=
PLAYORDER=
